<mxfile host="65bd71144e">
    <diagram id="OEirW4EoTftj0UcxZ94o" name="Page-1">
        <mxGraphModel dx="2588" dy="2166" grid="0" gridSize="10" guides="1" tooltips="1" connect="1" arrows="1" fold="1" page="1" pageScale="1" pageWidth="850" pageHeight="1100" math="0" shadow="0">
            <root>
                <mxCell id="0"/>
                <mxCell id="1" parent="0"/>
                <mxCell id="13" value="" style="rounded=0;whiteSpace=wrap;html=1;" vertex="1" parent="1">
                    <mxGeometry x="-550" y="-430" width="1510" height="930" as="geometry"/>
                </mxCell>
                <mxCell id="8" value="Preview" style="rounded=0;whiteSpace=wrap;html=1;" vertex="1" parent="1">
                    <mxGeometry x="570" y="-411" width="380" height="361" as="geometry"/>
                </mxCell>
                <mxCell id="14" value="Slide List" style="rounded=0;whiteSpace=wrap;html=1;" vertex="1" parent="1">
                    <mxGeometry x="-540" y="30" width="310" height="450" as="geometry"/>
                </mxCell>
                <mxCell id="15" value="Slide's Children" style="rounded=0;whiteSpace=wrap;html=1;" vertex="1" parent="1">
                    <mxGeometry x="-220" y="-410" width="770" height="540" as="geometry"/>
                </mxCell>
                <mxCell id="16" value="Play List" style="rounded=0;whiteSpace=wrap;html=1;" vertex="1" parent="1">
                    <mxGeometry x="-540" y="-410" width="310" height="430" as="geometry"/>
                </mxCell>
                <mxCell id="17" value="" style="group" vertex="1" connectable="0" parent="1">
                    <mxGeometry x="-220" y="140" width="770" height="340" as="geometry"/>
                </mxCell>
                <mxCell id="9" value="Media" style="rounded=0;whiteSpace=wrap;html=1;" vertex="1" parent="17">
                    <mxGeometry width="770" height="340" as="geometry"/>
                </mxCell>
                <mxCell id="10" value="Video" style="text;html=1;strokeColor=none;fillColor=none;align=center;verticalAlign=middle;whiteSpace=wrap;rounded=0;" vertex="1" parent="17">
                    <mxGeometry x="60.78947368421052" y="3.695652173913043" width="81.05263157894737" height="14.782608695652172" as="geometry"/>
                </mxCell>
                <mxCell id="11" value="" style="rounded=0;whiteSpace=wrap;html=1;" vertex="1" parent="17">
                    <mxGeometry x="182.36842105263156" width="587.6315789473683" height="22.173913043478258" as="geometry"/>
                </mxCell>
                <mxCell id="12" value="Image" style="text;html=1;strokeColor=none;fillColor=none;align=center;verticalAlign=middle;whiteSpace=wrap;rounded=0;" vertex="1" parent="17">
                    <mxGeometry x="202.6315789473684" y="3.695652173913043" width="81.05263157894737" height="14.782608695652172" as="geometry"/>
                </mxCell>
                <mxCell id="18" value="Bible Search" style="rounded=0;whiteSpace=wrap;html=1;" vertex="1" parent="1">
                    <mxGeometry x="570" y="5" width="380" height="475" as="geometry"/>
                </mxCell>
                <mxCell id="19" value="" style="rounded=1;whiteSpace=wrap;html=1;" vertex="1" parent="1">
                    <mxGeometry x="580" y="10" width="230" height="30" as="geometry"/>
                </mxCell>
                <mxCell id="20" value="" style="html=1;verticalLabelPosition=bottom;align=center;labelBackgroundColor=#ffffff;verticalAlign=top;strokeWidth=2;strokeColor=#0080F0;shadow=0;dashed=0;shape=mxgraph.ios7.icons.looking_glass;" vertex="1" parent="1">
                    <mxGeometry x="820" y="10" width="30" height="30" as="geometry"/>
                </mxCell>
                <mxCell id="21" value="change bible" style="rounded=0;whiteSpace=wrap;html=1;" vertex="1" parent="1">
                    <mxGeometry x="857" y="10" width="90" height="30" as="geometry"/>
                </mxCell>
                <mxCell id="3" value="Clear BG" style="rounded=1;whiteSpace=wrap;html=1;" vertex="1" parent="1">
                    <mxGeometry x="669" y="-40" width="88.73684210526315" height="30" as="geometry"/>
                </mxCell>
                <mxCell id="4" value="Clear FG" style="rounded=1;whiteSpace=wrap;html=1;" vertex="1" parent="1">
                    <mxGeometry x="765.1315789473684" y="-40" width="88.73684210526315" height="30" as="geometry"/>
                </mxCell>
                <mxCell id="5" value="Clear All" style="rounded=1;whiteSpace=wrap;html=1;" vertex="1" parent="1">
                    <mxGeometry x="861.2631578947369" y="-40" width="88.73684210526315" height="30" as="geometry"/>
                </mxCell>
                <mxCell id="27" value="Show | Hide" style="rounded=1;whiteSpace=wrap;html=1;" vertex="1" parent="1">
                    <mxGeometry x="574" y="-40" width="88.73684210526315" height="30" as="geometry"/>
                </mxCell>
            </root>
        </mxGraphModel>
    </diagram>
</mxfile>